MFile 1 3 120
MTrk
0 TimeSig 4/4 24 8
0 Tempo 500000
0 Meta TrkEnd
TrkEnd
MTrk
0 On ch=1 n=58 v=80
0 On ch=1 n=62 v=80
0 On ch=1 n=65 v=80
480 On ch=1 n=58 v=0
480 On ch=1 n=62 v=0
480 On ch=1 n=65 v=0
480 On ch=1 n=48 v=80
480 On ch=1 n=51 v=80
480 On ch=1 n=55 v=80
720 On ch=1 n=48 v=0
720 On ch=1 n=51 v=0
720 On ch=1 n=55 v=0
720 On ch=1 n=53 v=80
720 On ch=1 n=57 v=80
720 On ch=1 n=60 v=80
720 On ch=1 n=63 v=80
960 On ch=1 n=53 v=0
960 On ch=1 n=57 v=0
960 On ch=1 n=60 v=0
960 On ch=1 n=63 v=0
960 On ch=1 n=58 v=80
960 On ch=1 n=62 v=80
960 On ch=1 n=65 v=80
1440 On ch=1 n=58 v=0
1440 On ch=1 n=62 v=0
1440 On ch=1 n=65 v=0
1440 On ch=1 n=48 v=80
1440 On ch=1 n=51 v=80
1440 On ch=1 n=55 v=80
1680 On ch=1 n=48 v=0
1680 On ch=1 n=51 v=0
1680 On ch=1 n=55 v=0
1680 On ch=1 n=53 v=80
1680 On ch=1 n=57 v=80
1680 On ch=1 n=60 v=80
1680 On ch=1 n=63 v=80
1920 On ch=1 n=53 v=0
1920 On ch=1 n=57 v=0
1920 On ch=1 n=60 v=0
1920 On ch=1 n=63 v=0
1920 On ch=1 n=53 v=80
1920 On ch=1 n=56 v=80
1920 On ch=1 n=60 v=80
2160 On ch=1 n=53 v=0
2160 On ch=1 n=56 v=0
2160 On ch=1 n=60 v=0
2160 On ch=1 n=58 v=80
2160 On ch=1 n=62 v=80
2160 On ch=1 n=65 v=80
2160 On ch=1 n=68 v=80
2400 On ch=1 n=58 v=0
2400 On ch=1 n=62 v=0
2400 On ch=1 n=65 v=0
2400 On ch=1 n=68 v=0
2400 On ch=1 n=51 v=80
2400 On ch=1 n=55 v=80
2400 On ch=1 n=58 v=80
2400 On ch=1 n=61 v=80
2880 On ch=1 n=51 v=0
2880 On ch=1 n=55 v=0
2880 On ch=1 n=58 v=0
2880 On ch=1 n=61 v=0
2880 On ch=1 n=58 v=80
2880 On ch=1 n=62 v=80
2880 On ch=1 n=65 v=80
3360 On ch=1 n=58 v=0
3360 On ch=1 n=62 v=0
3360 On ch=1 n=65 v=0
3360 On ch=1 n=48 v=80
3360 On ch=1 n=51 v=80
3360 On ch=1 n=55 v=80
3600 On ch=1 n=48 v=0
3600 On ch=1 n=51 v=0
3600 On ch=1 n=55 v=0
3600 On ch=1 n=53 v=80
3600 On ch=1 n=57 v=80
3600 On ch=1 n=60 v=80
3600 On ch=1 n=63 v=80
3840 On ch=1 n=53 v=0
3840 On ch=1 n=57 v=0
3840 On ch=1 n=60 v=0
3840 On ch=1 n=63 v=0
3840 On ch=1 n=58 v=80
3840 On ch=1 n=62 v=80
3840 On ch=1 n=65 v=80
4320 On ch=1 n=58 v=0
4320 On ch=1 n=62 v=0
4320 On ch=1 n=65 v=0
4320 On ch=1 n=48 v=80
4320 On ch=1 n=51 v=80
4320 On ch=1 n=55 v=80
4560 On ch=1 n=48 v=0
4560 On ch=1 n=51 v=0
4560 On ch=1 n=55 v=0
4560 On ch=1 n=53 v=80
4560 On ch=1 n=57 v=80
4560 On ch=1 n=60 v=80
4560 On ch=1 n=63 v=80
4800 On ch=1 n=53 v=0
4800 On ch=1 n=57 v=0
4800 On ch=1 n=60 v=0
4800 On ch=1 n=63 v=0
4800 On ch=1 n=58 v=80
4800 On ch=1 n=62 v=80
4800 On ch=1 n=65 v=80
5280 On ch=1 n=58 v=0
5280 On ch=1 n=62 v=0
5280 On ch=1 n=65 v=0
5280 On ch=1 n=48 v=80
5280 On ch=1 n=51 v=80
5280 On ch=1 n=55 v=80
5520 On ch=1 n=48 v=0
5520 On ch=1 n=51 v=0
5520 On ch=1 n=55 v=0
5520 On ch=1 n=53 v=80
5520 On ch=1 n=57 v=80
5520 On ch=1 n=60 v=80
5520 On ch=1 n=63 v=80
5760 On ch=1 n=53 v=0
5760 On ch=1 n=57 v=0
5760 On ch=1 n=60 v=0
5760 On ch=1 n=63 v=0
5760 On ch=1 n=58 v=80
5760 On ch=1 n=62 v=80
5760 On ch=1 n=65 v=80
5760 On ch=1 n=68 v=80
6240 On ch=1 n=58 v=0
6240 On ch=1 n=62 v=0
6240 On ch=1 n=65 v=0
6240 On ch=1 n=68 v=0
6240 On ch=1 n=51 v=80
6240 On ch=1 n=55 v=80
6240 On ch=1 n=58 v=80
6480 On ch=1 n=51 v=0
6480 On ch=1 n=55 v=0
6480 On ch=1 n=58 v=0
6480 On ch=1 n=56 v=80
6480 On ch=1 n=60 v=80
6480 On ch=1 n=63 v=80
6480 On ch=1 n=66 v=80
6720 On ch=1 n=56 v=0
6720 On ch=1 n=60 v=0
6720 On ch=1 n=63 v=0
6720 On ch=1 n=66 v=0
6720 On ch=1 n=58 v=80
6720 On ch=1 n=62 v=80
6720 On ch=1 n=65 v=80
7200 On ch=1 n=58 v=0
7200 On ch=1 n=62 v=0
7200 On ch=1 n=65 v=0
7200 On ch=1 n=58 v=80
7200 On ch=1 n=62 v=80
7200 On ch=1 n=65 v=80
7680 On ch=1 n=58 v=0
7680 On ch=1 n=62 v=0
7680 On ch=1 n=65 v=0
7680 On ch=1 n=57 v=80
7680 On ch=1 n=60 v=80
7680 On ch=1 n=64 v=80
8160 On ch=1 n=57 v=0
8160 On ch=1 n=60 v=0
8160 On ch=1 n=64 v=0
8160 On ch=1 n=50 v=80
8160 On ch=1 n=54 v=80
8160 On ch=1 n=57 v=80
8160 On ch=1 n=60 v=80
8640 On ch=1 n=50 v=0
8640 On ch=1 n=54 v=0
8640 On ch=1 n=57 v=0
8640 On ch=1 n=60 v=0
8640 On ch=1 n=50 v=80
8640 On ch=1 n=53 v=80
8640 On ch=1 n=57 v=80
9120 On ch=1 n=50 v=0
9120 On ch=1 n=53 v=0
9120 On ch=1 n=57 v=0
9120 On ch=1 n=55 v=80
9120 On ch=1 n=59 v=80
9120 On ch=1 n=62 v=80
9120 On ch=1 n=65 v=80
9600 On ch=1 n=55 v=0
9600 On ch=1 n=59 v=0
9600 On ch=1 n=62 v=0
9600 On ch=1 n=65 v=0
9600 On ch=1 n=55 v=80
9600 On ch=1 n=58 v=80
9600 On ch=1 n=62 v=80
10080 On ch=1 n=55 v=0
10080 On ch=1 n=58 v=0
10080 On ch=1 n=62 v=0
10080 On ch=1 n=48 v=80
10080 On ch=1 n=52 v=80
10080 On ch=1 n=55 v=80
10080 On ch=1 n=58 v=80
10560 On ch=1 n=48 v=0
10560 On ch=1 n=52 v=0
10560 On ch=1 n=55 v=0
10560 On ch=1 n=58 v=0
10560 On ch=1 n=48 v=80
10560 On ch=1 n=51 v=80
10560 On ch=1 n=55 v=80
11040 On ch=1 n=48 v=0
11040 On ch=1 n=51 v=0
11040 On ch=1 n=55 v=0
11040 On ch=1 n=53 v=80
11040 On ch=1 n=57 v=80
11040 On ch=1 n=60 v=80
11040 On ch=1 n=63 v=80
11520 On ch=1 n=53 v=0
11520 On ch=1 n=57 v=0
11520 On ch=1 n=60 v=0
11520 On ch=1 n=63 v=0
11520 On ch=1 n=58 v=80
11520 On ch=1 n=62 v=80
11520 On ch=1 n=65 v=80
12000 On ch=1 n=58 v=0
12000 On ch=1 n=62 v=0
12000 On ch=1 n=65 v=0
12000 On ch=1 n=48 v=80
12000 On ch=1 n=51 v=80
12000 On ch=1 n=55 v=80
12240 On ch=1 n=48 v=0
12240 On ch=1 n=51 v=0
12240 On ch=1 n=55 v=0
12240 On ch=1 n=53 v=80
12240 On ch=1 n=57 v=80
12240 On ch=1 n=60 v=80
12240 On ch=1 n=63 v=80
12480 On ch=1 n=53 v=0
12480 On ch=1 n=57 v=0
12480 On ch=1 n=60 v=0
12480 On ch=1 n=63 v=0
12480 On ch=1 n=58 v=80
12480 On ch=1 n=62 v=80
12480 On ch=1 n=65 v=80
12960 On ch=1 n=58 v=0
12960 On ch=1 n=62 v=0
12960 On ch=1 n=65 v=0
12960 On ch=1 n=48 v=80
12960 On ch=1 n=51 v=80
12960 On ch=1 n=55 v=80
13200 On ch=1 n=48 v=0
13200 On ch=1 n=51 v=0
13200 On ch=1 n=55 v=0
13200 On ch=1 n=53 v=80
13200 On ch=1 n=57 v=80
13200 On ch=1 n=60 v=80
13200 On ch=1 n=63 v=80
13440 On ch=1 n=53 v=0
13440 On ch=1 n=57 v=0
13440 On ch=1 n=60 v=0
13440 On ch=1 n=63 v=0
13440 On ch=1 n=58 v=80
13440 On ch=1 n=62 v=80
13440 On ch=1 n=65 v=80
13440 On ch=1 n=68 v=80
13920 On ch=1 n=58 v=0
13920 On ch=1 n=62 v=0
13920 On ch=1 n=65 v=0
13920 On ch=1 n=68 v=0
13920 On ch=1 n=51 v=80
13920 On ch=1 n=55 v=80
13920 On ch=1 n=58 v=80
14400 On ch=1 n=51 v=0
14400 On ch=1 n=55 v=0
14400 On ch=1 n=58 v=0
14400 On ch=1 n=58 v=80
14400 On ch=1 n=62 v=80
14400 On ch=1 n=65 v=80
14880 On ch=1 n=58 v=0
14880 On ch=1 n=62 v=0
14880 On ch=1 n=65 v=0
14880 On ch=1 n=48 v=80
14880 On ch=1 n=51 v=80
14880 On ch=1 n=55 v=80
15120 On ch=1 n=48 v=0
15120 On ch=1 n=51 v=0
15120 On ch=1 n=55 v=0
15120 On ch=1 n=53 v=80
15120 On ch=1 n=57 v=80
15120 On ch=1 n=60 v=80
15120 On ch=1 n=63 v=80
15360 On ch=1 n=53 v=0
15360 On ch=1 n=57 v=0
15360 On ch=1 n=60 v=0
15360 On ch=1 n=63 v=0
15360 On ch=1 n=58 v=80
15360 On ch=1 n=62 v=80
15360 On ch=1 n=65 v=80
15840 On ch=1 n=58 v=0
15840 On ch=1 n=62 v=0
15840 On ch=1 n=65 v=0
15840 On ch=1 n=48 v=80
15840 On ch=1 n=51 v=80
15840 On ch=1 n=55 v=80
16080 On ch=1 n=48 v=0
16080 On ch=1 n=51 v=0
16080 On ch=1 n=55 v=0
16080 On ch=1 n=53 v=80
16080 On ch=1 n=57 v=80
16080 On ch=1 n=60 v=80
16080 On ch=1 n=63 v=80
16320 On ch=1 n=53 v=0
16320 On ch=1 n=57 v=0
16320 On ch=1 n=60 v=0
16320 On ch=1 n=63 v=0
16320 On ch=1 n=58 v=80
16320 On ch=1 n=62 v=80
16320 On ch=1 n=65 v=80
16800 On ch=1 n=58 v=0
16800 On ch=1 n=62 v=0
16800 On ch=1 n=65 v=0
16800 On ch=1 n=48 v=80
16800 On ch=1 n=51 v=80
16800 On ch=1 n=55 v=80
17040 On ch=1 n=48 v=0
17040 On ch=1 n=51 v=0
17040 On ch=1 n=55 v=0
17040 On ch=1 n=53 v=80
17040 On ch=1 n=57 v=80
17040 On ch=1 n=60 v=80
17040 On ch=1 n=63 v=80
17280 On ch=1 n=53 v=0
17280 On ch=1 n=57 v=0
17280 On ch=1 n=60 v=0
17280 On ch=1 n=63 v=0
17280 On ch=1 n=58 v=80
17280 On ch=1 n=62 v=80
17280 On ch=1 n=65 v=80
17280 On ch=1 n=68 v=80
17760 On ch=1 n=58 v=0
17760 On ch=1 n=62 v=0
17760 On ch=1 n=65 v=0
17760 On ch=1 n=68 v=0
17760 On ch=1 n=51 v=80
17760 On ch=1 n=55 v=80
17760 On ch=1 n=58 v=80
18000 On ch=1 n=51 v=0
18000 On ch=1 n=55 v=0
18000 On ch=1 n=58 v=0
18000 On ch=1 n=51 v=80
18000 On ch=1 n=54 v=80
18000 On ch=1 n=58 v=80
18240 On ch=1 n=51 v=0
18240 On ch=1 n=54 v=0
18240 On ch=1 n=58 v=0
18240 On ch=1 n=58 v=80
18240 On ch=1 n=62 v=80
18240 On ch=1 n=65 v=80
18720 On ch=1 n=58 v=0
18720 On ch=1 n=62 v=0
18720 On ch=1 n=65 v=0
18720 On ch=1 n=48 v=80
18720 On ch=1 n=51 v=80
18720 On ch=1 n=55 v=80
18960 On ch=1 n=48 v=0
18960 On ch=1 n=51 v=0
18960 On ch=1 n=55 v=0
18960 On ch=1 n=53 v=80
18960 On ch=1 n=57 v=80
18960 On ch=1 n=60 v=80
18960 On ch=1 n=63 v=80
19200 On ch=1 n=53 v=0
19200 On ch=1 n=57 v=0
19200 On ch=1 n=60 v=0
19200 On ch=1 n=63 v=0
19200 On ch=1 n=58 v=80
19200 On ch=1 n=62 v=80
19200 On ch=1 n=65 v=80
19680 On ch=1 n=58 v=0
19680 On ch=1 n=62 v=0
19680 On ch=1 n=65 v=0
19680 On ch=1 n=48 v=80
19680 On ch=1 n=51 v=80
19680 On ch=1 n=55 v=80
19920 On ch=1 n=48 v=0
19920 On ch=1 n=51 v=0
19920 On ch=1 n=55 v=0
19920 On ch=1 n=53 v=80
19920 On ch=1 n=57 v=80
19920 On ch=1 n=60 v=80
19920 On ch=1 n=63 v=80
20160 On ch=1 n=53 v=0
20160 On ch=1 n=57 v=0
20160 On ch=1 n=60 v=0
20160 On ch=1 n=63 v=0
20160 On ch=1 n=58 v=80
20160 On ch=1 n=62 v=80
20160 On ch=1 n=65 v=80
20640 On ch=1 n=58 v=0
20640 On ch=1 n=62 v=0
20640 On ch=1 n=65 v=0
20640 On ch=1 n=48 v=80
20640 On ch=1 n=51 v=80
20640 On ch=1 n=55 v=80
20880 On ch=1 n=48 v=0
20880 On ch=1 n=51 v=0
20880 On ch=1 n=55 v=0
20880 On ch=1 n=53 v=80
20880 On ch=1 n=57 v=80
20880 On ch=1 n=60 v=80
20880 On ch=1 n=63 v=80
21120 On ch=1 n=53 v=0
21120 On ch=1 n=57 v=0
21120 On ch=1 n=60 v=0
21120 On ch=1 n=63 v=0
21120 On ch=1 n=58 v=80
21120 On ch=1 n=62 v=80
21120 On ch=1 n=65 v=80
21120 On ch=1 n=68 v=80
21600 On ch=1 n=58 v=0
21600 On ch=1 n=62 v=0
21600 On ch=1 n=65 v=0
21600 On ch=1 n=68 v=0
21600 On ch=1 n=51 v=80
21600 On ch=1 n=55 v=80
21600 On ch=1 n=58 v=80
21840 On ch=1 n=51 v=0
21840 On ch=1 n=55 v=0
21840 On ch=1 n=58 v=0
21840 On ch=1 n=56 v=80
21840 On ch=1 n=60 v=80
21840 On ch=1 n=63 v=80
21840 On ch=1 n=66 v=80
22080 On ch=1 n=56 v=0
22080 On ch=1 n=60 v=0
22080 On ch=1 n=63 v=0
22080 On ch=1 n=66 v=0
22080 On ch=1 n=58 v=80
22080 On ch=1 n=62 v=80
22080 On ch=1 n=65 v=80
22560 On ch=1 n=58 v=0
22560 On ch=1 n=62 v=0
22560 On ch=1 n=65 v=0
22560 On ch=1 n=58 v=80
22560 On ch=1 n=62 v=80
22560 On ch=1 n=65 v=80
23040 On ch=1 n=58 v=0
23040 On ch=1 n=62 v=0
23040 On ch=1 n=65 v=0
23040 On ch=1 n=57 v=80
23040 On ch=1 n=60 v=80
23040 On ch=1 n=64 v=80
23520 On ch=1 n=57 v=0
23520 On ch=1 n=60 v=0
23520 On ch=1 n=64 v=0
23520 On ch=1 n=50 v=80
23520 On ch=1 n=54 v=80
23520 On ch=1 n=57 v=80
23520 On ch=1 n=60 v=80
24000 On ch=1 n=50 v=0
24000 On ch=1 n=54 v=0
24000 On ch=1 n=57 v=0
24000 On ch=1 n=60 v=0
24000 On ch=1 n=50 v=80
24000 On ch=1 n=53 v=80
24000 On ch=1 n=57 v=80
24480 On ch=1 n=50 v=0
24480 On ch=1 n=53 v=0
24480 On ch=1 n=57 v=0
24480 On ch=1 n=55 v=80
24480 On ch=1 n=59 v=80
24480 On ch=1 n=62 v=80
24480 On ch=1 n=65 v=80
24960 On ch=1 n=55 v=0
24960 On ch=1 n=59 v=0
24960 On ch=1 n=62 v=0
24960 On ch=1 n=65 v=0
24960 On ch=1 n=55 v=80
24960 On ch=1 n=58 v=80
24960 On ch=1 n=62 v=80
25440 On ch=1 n=55 v=0
25440 On ch=1 n=58 v=0
25440 On ch=1 n=62 v=0
25440 On ch=1 n=48 v=80
25440 On ch=1 n=52 v=80
25440 On ch=1 n=55 v=80
25440 On ch=1 n=58 v=80
25920 On ch=1 n=48 v=0
25920 On ch=1 n=52 v=0
25920 On ch=1 n=55 v=0
25920 On ch=1 n=58 v=0
25920 On ch=1 n=48 v=80
25920 On ch=1 n=51 v=80
25920 On ch=1 n=55 v=80
26400 On ch=1 n=48 v=0
26400 On ch=1 n=51 v=0
26400 On ch=1 n=55 v=0
26400 On ch=1 n=53 v=80
26400 On ch=1 n=57 v=80
26400 On ch=1 n=60 v=80
26400 On ch=1 n=63 v=80
26880 On ch=1 n=53 v=0
26880 On ch=1 n=57 v=0
26880 On ch=1 n=60 v=0
26880 On ch=1 n=63 v=0
26880 On ch=1 n=58 v=80
26880 On ch=1 n=62 v=80
26880 On ch=1 n=65 v=80
27360 On ch=1 n=58 v=0
27360 On ch=1 n=62 v=0
27360 On ch=1 n=65 v=0
27360 On ch=1 n=48 v=80
27360 On ch=1 n=51 v=80
27360 On ch=1 n=55 v=80
27600 On ch=1 n=48 v=0
27600 On ch=1 n=51 v=0
27600 On ch=1 n=55 v=0
27600 On ch=1 n=53 v=80
27600 On ch=1 n=57 v=80
27600 On ch=1 n=60 v=80
27600 On ch=1 n=63 v=80
27840 On ch=1 n=53 v=0
27840 On ch=1 n=57 v=0
27840 On ch=1 n=60 v=0
27840 On ch=1 n=63 v=0
27840 On ch=1 n=50 v=80
27840 On ch=1 n=53 v=80
27840 On ch=1 n=57 v=80
28080 On ch=1 n=50 v=0
28080 On ch=1 n=53 v=0
28080 On ch=1 n=57 v=0
28080 On ch=1 n=49 v=80
28080 On ch=1 n=52 v=80
28080 On ch=1 n=56 v=80
28320 On ch=1 n=49 v=0
28320 On ch=1 n=52 v=0
28320 On ch=1 n=56 v=0
28320 On ch=1 n=48 v=80
28320 On ch=1 n=51 v=80
28320 On ch=1 n=55 v=80
28560 On ch=1 n=48 v=0
28560 On ch=1 n=51 v=0
28560 On ch=1 n=55 v=0
28560 On ch=1 n=53 v=80
28560 On ch=1 n=57 v=80
28560 On ch=1 n=60 v=80
28560 On ch=1 n=63 v=80
28800 On ch=1 n=53 v=0
28800 On ch=1 n=57 v=0
28800 On ch=1 n=60 v=0
28800 On ch=1 n=63 v=0
28800 On ch=1 n=58 v=80
28800 On ch=1 n=62 v=80
28800 On ch=1 n=65 v=80
28800 On ch=1 n=68 v=80
29280 On ch=1 n=58 v=0
29280 On ch=1 n=62 v=0
29280 On ch=1 n=65 v=0
29280 On ch=1 n=68 v=0
29280 On ch=1 n=51 v=80
29280 On ch=1 n=55 v=80
29280 On ch=1 n=58 v=80
29280 On ch=1 n=61 v=80
29760 On ch=1 n=51 v=0
29760 On ch=1 n=55 v=0
29760 On ch=1 n=58 v=0
29760 On ch=1 n=61 v=0
29760 On ch=1 n=58 v=80
29760 On ch=1 n=62 v=80
29760 On ch=1 n=65 v=80
30240 On ch=1 n=58 v=0
30240 On ch=1 n=62 v=0
30240 On ch=1 n=65 v=0
30240 On ch=1 n=48 v=80
30240 On ch=1 n=51 v=80
30240 On ch=1 n=55 v=80
30480 On ch=1 n=48 v=0
30480 On ch=1 n=51 v=0
30480 On ch=1 n=55 v=0
30480 On ch=1 n=53 v=80
30480 On ch=1 n=57 v=80
30480 On ch=1 n=60 v=80
30480 On ch=1 n=63 v=80
30720 On ch=1 n=53 v=0
30720 On ch=1 n=57 v=0
30720 On ch=1 n=60 v=0
30720 On ch=1 n=63 v=0
30720 On ch=1 n=58 v=80
30720 On ch=1 n=62 v=80
30720 On ch=1 n=65 v=80
31080 On ch=1 n=60 v=0
31200 On ch=1 n=58 v=0
31200 On ch=1 n=62 v=0
31200 On ch=1 n=65 v=0
31200 On ch=1 n=60 v=0
31200 Meta TrkEnd
TrkEnd
MTrk
0 On ch=2 n=65 v=127
120 On ch=2 n=65 v=0
180 On ch=2 n=77 v=127
240 On ch=2 n=77 v=0
240 On ch=2 n=77 v=127
300 On ch=2 n=77 v=0
300 On ch=2 n=74 v=127
360 On ch=2 n=74 v=0
360 On ch=2 n=75 v=127
480 On ch=2 n=75 v=0
540 On ch=2 n=70 v=127
600 On ch=2 n=70 v=0
600 On ch=2 n=67 v=127
640 On ch=2 n=67 v=0
640 On ch=2 n=63 v=127
679 On ch=2 n=63 v=0
679 On ch=2 n=60 v=127
719 On ch=2 n=60 v=0
719 On ch=2 n=70 v=127
779 On ch=2 n=70 v=0
779 On ch=2 n=67 v=127
839 On ch=2 n=67 v=0
839 On ch=2 n=73 v=127
899 On ch=2 n=73 v=0
899 On ch=2 n=74 v=127
959 On ch=2 n=74 v=0
960 On ch=2 n=65 v=127
1080 On ch=2 n=65 v=0
1140 On ch=2 n=74 v=127
1200 On ch=2 n=74 v=0
1200 On ch=2 n=74 v=127
1260 On ch=2 n=74 v=0
1260 On ch=2 n=70 v=127
1320 On ch=2 n=70 v=0
1320 On ch=2 n=72 v=127
1440 On ch=2 n=72 v=0
1500 On ch=2 n=65 v=127
1560 On ch=2 n=65 v=0
1560 On ch=2 n=65 v=127
1620 On ch=2 n=65 v=0
1620 On ch=2 n=65 v=127
1680 On ch=2 n=65 v=0
1680 On ch=2 n=72 v=127
1740 On ch=2 n=72 v=0
1740 On ch=2 n=65 v=127
1860 On ch=2 n=65 v=0
1860 On ch=2 n=67 v=127
1920 On ch=2 n=67 v=0
1920 On ch=2 n=68 v=127
1980 On ch=2 n=68 v=0
1980 On ch=2 n=68 v=127
2040 On ch=2 n=68 v=0
2040 On ch=2 n=67 v=127
2100 On ch=2 n=67 v=0
2100 On ch=2 n=66 v=127
2160 On ch=2 n=66 v=0
2160 On ch=2 n=65 v=127
2280 On ch=2 n=65 v=0
2340 On ch=2 n=72 v=127
2400 On ch=2 n=72 v=0
2460 On ch=2 n=70 v=127
2520 On ch=2 n=70 v=0
2580 On ch=2 n=67 v=127
2640 On ch=2 n=67 v=0
2640 On ch=2 n=73 v=127
2700 On ch=2 n=73 v=0
2700 On ch=2 n=74 v=127
2760 On ch=2 n=74 v=0
2760 On ch=2 n=73 v=127
2820 On ch=2 n=73 v=0
2820 On ch=2 n=74 v=127
2880 On ch=2 n=74 v=0
2880 On ch=2 n=65 v=127
3000 On ch=2 n=65 v=0
3060 On ch=2 n=70 v=127
3120 On ch=2 n=70 v=0
3120 On ch=2 n=74 v=127
3180 On ch=2 n=74 v=0
3180 On ch=2 n=75 v=127
3240 On ch=2 n=75 v=0
3240 On ch=2 n=74 v=127
3300 On ch=2 n=74 v=0
3300 On ch=2 n=69 v=127
3360 On ch=2 n=69 v=0
3360 On ch=2 n=69 v=127
3420 On ch=2 n=69 v=0
3420 On ch=2 n=70 v=127
3480 On ch=2 n=70 v=0
3480 On ch=2 n=67 v=127
3520 On ch=2 n=67 v=0
3520 On ch=2 n=65 v=127
3559 On ch=2 n=65 v=0
3559 On ch=2 n=62 v=127
3599 On ch=2 n=62 v=0
3599 On ch=2 n=65 v=127
3659 On ch=2 n=65 v=0
3659 On ch=2 n=62 v=127
3719 On ch=2 n=62 v=0
3719 On ch=2 n=68 v=127
3779 On ch=2 n=68 v=0
3779 On ch=2 n=65 v=127
3839 On ch=2 n=65 v=0
4020 On ch=2 n=77 v=127
4080 On ch=2 n=77 v=0
4080 On ch=2 n=77 v=127
4140 On ch=2 n=77 v=0
4140 On ch=2 n=74 v=127
4200 On ch=2 n=74 v=0
4200 On ch=2 n=75 v=127
4320 On ch=2 n=75 v=0
4380 On ch=2 n=70 v=127
4440 On ch=2 n=70 v=0
4440 On ch=2 n=67 v=127
4480 On ch=2 n=67 v=0
4480 On ch=2 n=63 v=127
4520 On ch=2 n=63 v=0
4520 On ch=2 n=60 v=127
4560 On ch=2 n=60 v=0
4560 On ch=2 n=70 v=127
4620 On ch=2 n=70 v=0
4620 On ch=2 n=66 v=127
4680 On ch=2 n=66 v=0
4680 On ch=2 n=63 v=127
4740 On ch=2 n=63 v=0
4740 On ch=2 n=60 v=127
4800 On ch=2 n=60 v=0
4800 On ch=2 n=65 v=127
4920 On ch=2 n=65 v=0
4980 On ch=2 n=74 v=127
5040 On ch=2 n=74 v=0
5040 On ch=2 n=74 v=127
5100 On ch=2 n=74 v=0
5100 On ch=2 n=70 v=127
5160 On ch=2 n=70 v=0
5160 On ch=2 n=72 v=127
5280 On ch=2 n=72 v=0
5340 On ch=2 n=60 v=127
5400 On ch=2 n=60 v=0
5400 On ch=2 n=63 v=127
5460 On ch=2 n=63 v=0
5460 On ch=2 n=67 v=127
5520 On ch=2 n=67 v=0
5520 On ch=2 n=72 v=127
5580 On ch=2 n=72 v=0
5580 On ch=2 n=70 v=127
5640 On ch=2 n=70 v=0
5640 On ch=2 n=74 v=127
5700 On ch=2 n=74 v=0
5700 On ch=2 n=68 v=127
5760 On ch=2 n=68 v=0
5760 On ch=2 n=68 v=127
5880 On ch=2 n=68 v=0
5880 On ch=2 n=63 v=127
5940 On ch=2 n=63 v=0
5940 On ch=2 n=60 v=127
6000 On ch=2 n=60 v=0
6000 On ch=2 n=59 v=127
6060 On ch=2 n=59 v=0
6060 On ch=2 n=67 v=127
6120 On ch=2 n=67 v=0
6180 On ch=2 n=62 v=127
6240 On ch=2 n=62 v=0
6240 On ch=2 n=65 v=127
6300 On ch=2 n=65 v=0
6300 On ch=2 n=62 v=127
6360 On ch=2 n=62 v=0
6360 On ch=2 n=58 v=127
6380 On ch=2 n=58 v=0
6380 On ch=2 n=60 v=127
6399 On ch=2 n=60 v=0
6399 On ch=2 n=58 v=127
6419 On ch=2 n=58 v=0
6419 On ch=2 n=55 v=127
6479 On ch=2 n=55 v=0
6479 On ch=2 n=54 v=127
6539 On ch=2 n=54 v=0
6539 On ch=2 n=61 v=127
6659 On ch=2 n=61 v=0
6659 On ch=2 n=58 v=127
6719 On ch=2 n=58 v=0
6720 On ch=2 n=60 v=127
6840 On ch=2 n=60 v=0
6900 On ch=2 n=63 v=127
6960 On ch=2 n=63 v=0
7020 On ch=2 n=67 v=127
7080 On ch=2 n=67 v=0
7080 On ch=2 n=65 v=127
7200 On ch=2 n=65 v=0
7260 On ch=2 n=69 v=127
7320 On ch=2 n=69 v=0
7380 On ch=2 n=72 v=127
7440 On ch=2 n=72 v=0
7440 On ch=2 n=70 v=127
7500 On ch=2 n=70 v=0
7500 On ch=2 n=62 v=127
7560 On ch=2 n=62 v=0
7560 On ch=2 n=63 v=127
7620 On ch=2 n=63 v=0
7620 On ch=2 n=64 v=127
7680 On ch=2 n=64 v=0
7860 On ch=2 n=69 v=127
7920 On ch=2 n=69 v=0
7980 On ch=2 n=67 v=127
8040 On ch=2 n=67 v=0
8100 On ch=2 n=66 v=127
8160 On ch=2 n=66 v=0
8160 On ch=2 n=64 v=127
8220 On ch=2 n=64 v=0
8220 On ch=2 n=60 v=127
8280 On ch=2 n=60 v=0
8280 On ch=2 n=61 v=127
8340 On ch=2 n=61 v=0
8340 On ch=2 n=62 v=127
8400 On ch=2 n=62 v=0
8400 On ch=2 n=62 v=127
8520 On ch=2 n=62 v=0
8580 On ch=2 n=64 v=127
8640 On ch=2 n=64 v=0
8640 On ch=2 n=69 v=127
8700 On ch=2 n=69 v=0
8700 On ch=2 n=65 v=127
8760 On ch=2 n=65 v=0
8760 On ch=2 n=67 v=127
8820 On ch=2 n=67 v=0
8820 On ch=2 n=69 v=127
8880 On ch=2 n=69 v=0
8880 On ch=2 n=76 v=127
8940 On ch=2 n=76 v=0
8940 On ch=2 n=74 v=127
9000 On ch=2 n=74 v=0
9000 On ch=2 n=71 v=127
9060 On ch=2 n=71 v=0
9060 On ch=2 n=69 v=127
9120 On ch=2 n=69 v=0
9300 On ch=2 n=67 v=127
9360 On ch=2 n=67 v=0
9420 On ch=2 n=69 v=127
9480 On ch=2 n=69 v=0
9540 On ch=2 n=67 v=127
9600 On ch=2 n=67 v=0
9600 On ch=2 n=70 v=127
9720 On ch=2 n=70 v=0
9780 On ch=2 n=62 v=127
9840 On ch=2 n=62 v=0
9840 On ch=2 n=69 v=127
9900 On ch=2 n=69 v=0
9900 On ch=2 n=67 v=127
9960 On ch=2 n=67 v=0
9960 On ch=2 n=64 v=127
10080 On ch=2 n=64 v=0
10080 On ch=2 n=62 v=127
10140 On ch=2 n=62 v=0
10140 On ch=2 n=60 v=127
10200 On ch=2 n=60 v=0
10200 On ch=2 n=62 v=127
10260 On ch=2 n=62 v=0
10260 On ch=2 n=69 v=127
10320 On ch=2 n=69 v=0
10320 On ch=2 n=69 v=127
10500 On ch=2 n=69 v=0
10500 On ch=2 n=67 v=127
10560 On ch=2 n=67 v=0
10560 On ch=2 n=65 v=127
10680 On ch=2 n=65 v=0
10740 On ch=2 n=62 v=127
10800 On ch=2 n=62 v=0
10800 On ch=2 n=63 v=127
10860 On ch=2 n=63 v=0
10860 On ch=2 n=62 v=127
10920 On ch=2 n=62 v=0
10920 On ch=2 n=61 v=127
10980 On ch=2 n=61 v=0
10980 On ch=2 n=62 v=127
11040 On ch=2 n=62 v=0
11040 On ch=2 n=63 v=127
11160 On ch=2 n=63 v=0
11220 On ch=2 n=68 v=127
11280 On ch=2 n=68 v=0
11340 On ch=2 n=66 v=127
11400 On ch=2 n=66 v=0
11460 On ch=2 n=64 v=127
11520 On ch=2 n=64 v=0
11520 On ch=2 n=65 v=127
11640 On ch=2 n=65 v=0
11700 On ch=2 n=77 v=127
11760 On ch=2 n=77 v=0
11760 On ch=2 n=77 v=127
11820 On ch=2 n=77 v=0
11820 On ch=2 n=74 v=127
11880 On ch=2 n=74 v=0
11880 On ch=2 n=75 v=127
12000 On ch=2 n=75 v=0
12060 On ch=2 n=70 v=127
12120 On ch=2 n=70 v=0
12120 On ch=2 n=67 v=127
12160 On ch=2 n=67 v=0
12160 On ch=2 n=63 v=127
12199 On ch=2 n=63 v=0
12199 On ch=2 n=60 v=127
12239 On ch=2 n=60 v=0
12239 On ch=2 n=70 v=127
12299 On ch=2 n=70 v=0
12299 On ch=2 n=67 v=127
12359 On ch=2 n=67 v=0
12359 On ch=2 n=73 v=127
12419 On ch=2 n=73 v=0
12419 On ch=2 n=74 v=127
12479 On ch=2 n=74 v=0
12480 On ch=2 n=65 v=127
12600 On ch=2 n=65 v=0
12660 On ch=2 n=74 v=127
12720 On ch=2 n=74 v=0
12720 On ch=2 n=74 v=127
12780 On ch=2 n=74 v=0
12780 On ch=2 n=70 v=127
12840 On ch=2 n=70 v=0
12840 On ch=2 n=72 v=127
12960 On ch=2 n=72 v=0
13020 On ch=2 n=65 v=127
13080 On ch=2 n=65 v=0
13080 On ch=2 n=65 v=127
13200 On ch=2 n=65 v=0
13200 On ch=2 n=72 v=127
13260 On ch=2 n=72 v=0
13260 On ch=2 n=65 v=127
13380 On ch=2 n=65 v=0
13380 On ch=2 n=67 v=127
13440 On ch=2 n=67 v=0
13440 On ch=2 n=68 v=127
13500 On ch=2 n=68 v=0
13500 On ch=2 n=68 v=127
13560 On ch=2 n=68 v=0
13560 On ch=2 n=67 v=127
13620 On ch=2 n=67 v=0
13620 On ch=2 n=66 v=127
13680 On ch=2 n=66 v=0
13680 On ch=2 n=65 v=127
13800 On ch=2 n=65 v=0
13860 On ch=2 n=72 v=127
13920 On ch=2 n=72 v=0
13980 On ch=2 n=70 v=127
14040 On ch=2 n=70 v=0
14100 On ch=2 n=67 v=127
14160 On ch=2 n=67 v=0
14160 On ch=2 n=73 v=127
14220 On ch=2 n=73 v=0
14220 On ch=2 n=74 v=127
14280 On ch=2 n=74 v=0
14280 On ch=2 n=73 v=127
14340 On ch=2 n=73 v=0
14340 On ch=2 n=74 v=127
14400 On ch=2 n=74 v=0
14400 On ch=2 n=65 v=127
14520 On ch=2 n=65 v=0
14580 On ch=2 n=73 v=127
14640 On ch=2 n=73 v=0
14640 On ch=2 n=73 v=127
14660 On ch=2 n=73 v=0
14660 On ch=2 n=75 v=127
14680 On ch=2 n=75 v=0
14680 On ch=2 n=73 v=127
14700 On ch=2 n=73 v=0
14700 On ch=2 n=70 v=127
14760 On ch=2 n=70 v=0
14760 On ch=2 n=72 v=127
14880 On ch=2 n=72 v=0
14940 On ch=2 n=70 v=127
15000 On ch=2 n=70 v=0
15000 On ch=2 n=70 v=127
15020 On ch=2 n=70 v=0
15020 On ch=2 n=72 v=127
15040 On ch=2 n=72 v=0
15040 On ch=2 n=70 v=127
15060 On ch=2 n=70 v=0
15060 On ch=2 n=67 v=127
15120 On ch=2 n=67 v=0
15120 On ch=2 n=70 v=127
15240 On ch=2 n=70 v=0
15600 On ch=2 n=60 v=127
15660 On ch=2 n=60 v=0
15660 On ch=2 n=58 v=127
15720 On ch=2 n=58 v=0
15720 On ch=2 n=57 v=127
15780 On ch=2 n=57 v=0
15780 On ch=2 n=58 v=127
15840 On ch=2 n=58 v=0
15840 On ch=2 n=63 v=127
15900 On ch=2 n=63 v=0
15900 On ch=2 n=66 v=127
15960 On ch=2 n=66 v=0
15960 On ch=2 n=63 v=127
16020 On ch=2 n=63 v=0
16020 On ch=2 n=64 v=127
16080 On ch=2 n=64 v=0
16080 On ch=2 n=65 v=127
16140 On ch=2 n=65 v=0
16140 On ch=2 n=63 v=127
16200 On ch=2 n=63 v=0
16200 On ch=2 n=62 v=127
16240 On ch=2 n=62 v=0
16240 On ch=2 n=65 v=127
16280 On ch=2 n=65 v=0
16280 On ch=2 n=69 v=127
16320 On ch=2 n=69 v=0
16320 On ch=2 n=70 v=127
16440 On ch=2 n=70 v=0
16440 On ch=2 n=65 v=127
16560 On ch=2 n=65 v=0
16560 On ch=2 n=67 v=127
16800 On ch=2 n=67 v=0
17520 On ch=2 n=72 v=127
17580 On ch=2 n=72 v=0
17580 On ch=2 n=71 v=127
17640 On ch=2 n=71 v=0
17640 On ch=2 n=70 v=127
17700 On ch=2 n=70 v=0
17700 On ch=2 n=68 v=127
17760 On ch=2 n=68 v=0
17760 On ch=2 n=67 v=127
17820 On ch=2 n=67 v=0
17820 On ch=2 n=65 v=127
17880 On ch=2 n=65 v=0
17880 On ch=2 n=63 v=127
17940 On ch=2 n=63 v=0
17940 On ch=2 n=60 v=127
18000 On ch=2 n=60 v=0
18000 On ch=2 n=70 v=127
18060 On ch=2 n=70 v=0
18060 On ch=2 n=66 v=127
18120 On ch=2 n=66 v=0
18120 On ch=2 n=63 v=127
18180 On ch=2 n=63 v=0
18180 On ch=2 n=60 v=127
18240 On ch=2 n=60 v=0
18240 On ch=2 n=62 v=127
18300 On ch=2 n=62 v=0
18300 On ch=2 n=58 v=127
18360 On ch=2 n=58 v=0
18360 On ch=2 n=57 v=127
18420 On ch=2 n=57 v=0
18420 On ch=2 n=58 v=127
18480 On ch=2 n=58 v=0
18480 On ch=2 n=60 v=127
18540 On ch=2 n=60 v=0
18540 On ch=2 n=58 v=127
18600 On ch=2 n=58 v=0
18600 On ch=2 n=57 v=127
18660 On ch=2 n=57 v=0
18660 On ch=2 n=58 v=127
18720 On ch=2 n=58 v=0
18720 On ch=2 n=58 v=127
18960 On ch=2 n=58 v=0
19260 On ch=2 n=64 v=127
19320 On ch=2 n=64 v=0
19320 On ch=2 n=65 v=127
19360 On ch=2 n=65 v=0
19360 On ch=2 n=70 v=127
19400 On ch=2 n=70 v=0
19400 On ch=2 n=74 v=127
19440 On ch=2 n=74 v=0
19440 On ch=2 n=77 v=127
19560 On ch=2 n=77 v=0
19560 On ch=2 n=75 v=127
19620 On ch=2 n=75 v=0
19620 On ch=2 n=72 v=127
19680 On ch=2 n=72 v=0
19680 On ch=2 n=72 v=127
19920 On ch=2 n=72 v=0
20220 On ch=2 n=74 v=127
20250 On ch=2 n=74 v=0
20250 On ch=2 n=72 v=127
20280 On ch=2 n=72 v=0
20280 On ch=2 n=70 v=127
20340 On ch=2 n=70 v=0
20340 On ch=2 n=69 v=127
20400 On ch=2 n=69 v=0
20400 On ch=2 n=67 v=127
20460 On ch=2 n=67 v=0
20460 On ch=2 n=66 v=127
20520 On ch=2 n=66 v=0
20520 On ch=2 n=65 v=127
20580 On ch=2 n=65 v=0
20580 On ch=2 n=64 v=127
20640 On ch=2 n=64 v=0
20640 On ch=2 n=63 v=127
20700 On ch=2 n=63 v=0
20700 On ch=2 n=58 v=127
20760 On ch=2 n=58 v=0
20760 On ch=2 n=55 v=127
20820 On ch=2 n=55 v=0
20820 On ch=2 n=58 v=127
20880 On ch=2 n=58 v=0
20880 On ch=2 n=61 v=127
20940 On ch=2 n=61 v=0
20940 On ch=2 n=62 v=127
21000 On ch=2 n=62 v=0
21000 On ch=2 n=58 v=127
21060 On ch=2 n=58 v=0
21060 On ch=2 n=55 v=127
21120 On ch=2 n=55 v=0
21120 On ch=2 n=60 v=127
21180 On ch=2 n=60 v=0
21180 On ch=2 n=59 v=127
21240 On ch=2 n=59 v=0
21240 On ch=2 n=58 v=127
21300 On ch=2 n=58 v=0
21300 On ch=2 n=57 v=127
21360 On ch=2 n=57 v=0
21360 On ch=2 n=56 v=127
21480 On ch=2 n=56 v=0
21480 On ch=2 n=70 v=127
21540 On ch=2 n=70 v=0
21540 On ch=2 n=68 v=127
21600 On ch=2 n=68 v=0
21600 On ch=2 n=67 v=127
21660 On ch=2 n=67 v=0
21660 On ch=2 n=65 v=127
21720 On ch=2 n=65 v=0
21720 On ch=2 n=63 v=127
21780 On ch=2 n=63 v=0
21780 On ch=2 n=60 v=127
21840 On ch=2 n=60 v=0
21840 On ch=2 n=70 v=127
21860 On ch=2 n=70 v=0
21860 On ch=2 n=72 v=127
21879 On ch=2 n=72 v=0
21879 On ch=2 n=70 v=127
21899 On ch=2 n=70 v=0
21899 On ch=2 n=66 v=127
21959 On ch=2 n=66 v=0
21959 On ch=2 n=63 v=127
22019 On ch=2 n=63 v=0
22019 On ch=2 n=58 v=127
22079 On ch=2 n=58 v=0
22080 On ch=2 n=62 v=127
22140 On ch=2 n=62 v=0
22140 On ch=2 n=65 v=127
22200 On ch=2 n=65 v=0
22200 On ch=2 n=65 v=127
22440 On ch=2 n=65 v=0
23100 On ch=2 n=57 v=127
23160 On ch=2 n=57 v=0
23160 On ch=2 n=60 v=127
23200 On ch=2 n=60 v=0
23200 On ch=2 n=64 v=127
23240 On ch=2 n=64 v=0
23240 On ch=2 n=67 v=127
23280 On ch=2 n=67 v=0
23280 On ch=2 n=71 v=127
23400 On ch=2 n=71 v=0
23400 On ch=2 n=68 v=127
23440 On ch=2 n=68 v=0
23440 On ch=2 n=64 v=127
23480 On ch=2 n=64 v=0
23480 On ch=2 n=60 v=127
23520 On ch=2 n=60 v=0
23520 On ch=2 n=71 v=127
23580 On ch=2 n=71 v=0
23580 On ch=2 n=68 v=127
23640 On ch=2 n=68 v=0
23820 On ch=2 n=62 v=127
23880 On ch=2 n=62 v=0
23880 On ch=2 n=65 v=127
23920 On ch=2 n=65 v=0
23920 On ch=2 n=69 v=127
23960 On ch=2 n=69 v=0
23960 On ch=2 n=72 v=127
24000 On ch=2 n=72 v=0
24000 On ch=2 n=76 v=127
24040 On ch=2 n=76 v=0
24040 On ch=2 n=75 v=127
24080 On ch=2 n=75 v=0
24080 On ch=2 n=74 v=127
24120 On ch=2 n=74 v=0
24120 On ch=2 n=73 v=127
24240 On ch=2 n=73 v=0
24720 On ch=2 n=72 v=127
24740 On ch=2 n=72 v=0
24740 On ch=2 n=74 v=127
24759 On ch=2 n=74 v=0
24759 On ch=2 n=72 v=127
24779 On ch=2 n=72 v=0
24779 On ch=2 n=71 v=127
24839 On ch=2 n=71 v=0
24839 On ch=2 n=70 v=127
24899 On ch=2 n=70 v=0
24899 On ch=2 n=68 v=127
24959 On ch=2 n=68 v=0
24960 On ch=2 n=67 v=127
25020 On ch=2 n=67 v=0
25020 On ch=2 n=65 v=127
25080 On ch=2 n=65 v=0
25080 On ch=2 n=64 v=127
25140 On ch=2 n=64 v=0
25140 On ch=2 n=60 v=127
25200 On ch=2 n=60 v=0
25200 On ch=2 n=62 v=127
25260 On ch=2 n=62 v=0
25260 On ch=2 n=58 v=127
25320 On ch=2 n=58 v=0
25320 On ch=2 n=55 v=127
25380 On ch=2 n=55 v=0
25380 On ch=2 n=57 v=127
25440 On ch=2 n=57 v=0
25440 On ch=2 n=60 v=127
25500 On ch=2 n=60 v=0
25500 On ch=2 n=57 v=127
25560 On ch=2 n=57 v=0
25560 On ch=2 n=58 v=127
25600 On ch=2 n=58 v=0
25600 On ch=2 n=62 v=127
25640 On ch=2 n=62 v=0
25640 On ch=2 n=64 v=127
25680 On ch=2 n=64 v=0
25680 On ch=2 n=69 v=127
25740 On ch=2 n=69 v=0
25740 On ch=2 n=67 v=127
25800 On ch=2 n=67 v=0
25800 On ch=2 n=64 v=127
25860 On ch=2 n=64 v=0
25860 On ch=2 n=60 v=127
25920 On ch=2 n=60 v=0
25920 On ch=2 n=65 v=127
25980 On ch=2 n=65 v=0
25980 On ch=2 n=60 v=127
26040 On ch=2 n=60 v=0
26040 On ch=2 n=62 v=127
26100 On ch=2 n=62 v=0
26100 On ch=2 n=63 v=127
26160 On ch=2 n=63 v=0
26160 On ch=2 n=62 v=127
26180 On ch=2 n=62 v=0
26180 On ch=2 n=63 v=127
26199 On ch=2 n=63 v=0
26199 On ch=2 n=62 v=127
26219 On ch=2 n=62 v=0
26219 On ch=2 n=60 v=127
26279 On ch=2 n=60 v=0
26279 On ch=2 n=62 v=127
26399 On ch=2 n=62 v=0
26700 On ch=2 n=77 v=127
26760 On ch=2 n=77 v=0
26760 On ch=2 n=77 v=127
26820 On ch=2 n=77 v=0
26820 On ch=2 n=77 v=127
26880 On ch=2 n=77 v=0
26880 On ch=2 n=77 v=127
26940 On ch=2 n=77 v=0
26940 On ch=2 n=75 v=127
27000 On ch=2 n=75 v=0
27180 On ch=2 n=77 v=127
27360 On ch=2 n=77 v=0
27360 On ch=2 n=74 v=127
27480 On ch=2 n=74 v=0
27480 On ch=2 n=77 v=127
27540 On ch=2 n=77 v=0
27540 On ch=2 n=72 v=127
27600 On ch=2 n=72 v=0
27600 On ch=2 n=72 v=127
27720 On ch=2 n=72 v=0
27780 On ch=2 n=69 v=127
27840 On ch=2 n=69 v=0
27840 On ch=2 n=72 v=127
27900 On ch=2 n=72 v=0
27900 On ch=2 n=69 v=127
27960 On ch=2 n=69 v=0
28140 On ch=2 n=71 v=127
28200 On ch=2 n=71 v=0
28200 On ch=2 n=68 v=127
28240 On ch=2 n=68 v=0
28240 On ch=2 n=64 v=127
28280 On ch=2 n=64 v=0
28280 On ch=2 n=61 v=127
28320 On ch=2 n=61 v=0
28320 On ch=2 n=70 v=127
28360 On ch=2 n=70 v=0
28360 On ch=2 n=72 v=127
28400 On ch=2 n=72 v=0
28400 On ch=2 n=70 v=127
28440 On ch=2 n=70 v=0
28440 On ch=2 n=69 v=127
28500 On ch=2 n=69 v=0
28500 On ch=2 n=67 v=127
28560 On ch=2 n=67 v=0
28560 On ch=2 n=65 v=127
28620 On ch=2 n=65 v=0
28620 On ch=2 n=63 v=127
28680 On ch=2 n=63 v=0
28680 On ch=2 n=62 v=127
28740 On ch=2 n=62 v=0
28740 On ch=2 n=60 v=127
28800 On ch=2 n=60 v=0
28800 On ch=2 n=58 v=127
28860 On ch=2 n=58 v=0
28860 On ch=2 n=57 v=127
28920 On ch=2 n=57 v=0
28920 On ch=2 n=56 v=127
28980 On ch=2 n=56 v=0
28980 On ch=2 n=55 v=127
29040 On ch=2 n=55 v=0
29040 On ch=2 n=70 v=127
29100 On ch=2 n=70 v=0
29100 On ch=2 n=68 v=127
29160 On ch=2 n=68 v=0
29160 On ch=2 n=67 v=127
29220 On ch=2 n=67 v=0
29220 On ch=2 n=65 v=127
29280 On ch=2 n=65 v=0
29280 On ch=2 n=63 v=127
29340 On ch=2 n=63 v=0
29340 On ch=2 n=58 v=127
29400 On ch=2 n=58 v=0
29400 On ch=2 n=60 v=127
29460 On ch=2 n=60 v=0
29460 On ch=2 n=61 v=127
29520 On ch=2 n=61 v=0
29520 On ch=2 n=61 v=127
29640 On ch=2 n=61 v=0
30060 On ch=2 n=58 v=127
30120 On ch=2 n=58 v=0
30120 On ch=2 n=61 v=127
30180 On ch=2 n=61 v=0
30180 On ch=2 n=62 v=127
30240 On ch=2 n=62 v=0
30240 On ch=2 n=57 v=127
30300 On ch=2 n=57 v=0
30300 On ch=2 n=58 v=127
30360 On ch=2 n=58 v=0
30360 On ch=2 n=60 v=127
30420 On ch=2 n=60 v=0
30420 On ch=2 n=58 v=127
30480 On ch=2 n=58 v=0
30480 On ch=2 n=57 v=127
30540 On ch=2 n=57 v=0
30540 On ch=2 n=66 v=127
30600 On ch=2 n=66 v=0
30600 On ch=2 n=63 v=127
30660 On ch=2 n=63 v=0
30660 On ch=2 n=64 v=127
30720 On ch=2 n=64 v=0
30720 On ch=2 n=65 v=127
30780 On ch=2 n=65 v=0
30780 On ch=2 n=62 v=127
30840 On ch=2 n=62 v=0
30960 On ch=2 n=62 v=127
31080 On ch=2 n=62 v=0
31080 Meta TrkEnd
TrkEnd
